<?xml version="1.0" encoding="UTF-8" standalone="no"?>
<!-- Created with Inkscape (http://www.inkscape.org/) -->

<svg
   xmlns:i="http://ns.adobe.com/AdobeIllustrator/10.0/"
   xmlns:dc="http://purl.org/dc/elements/1.1/"
   xmlns:cc="http://creativecommons.org/ns#"
   xmlns:rdf="http://www.w3.org/1999/02/22-rdf-syntax-ns#"
   xmlns:svg="http://www.w3.org/2000/svg"
   xmlns="http://www.w3.org/2000/svg"
   xmlns:sodipodi="http://sodipodi.sourceforge.net/DTD/sodipodi-0.dtd"
   xmlns:inkscape="http://www.inkscape.org/namespaces/inkscape"
   width="64px"
   height="64px"
   id="svg4108"
   version="1.1"
   inkscape:version="0.48.3.1 r9886"
   sodipodi:docname="icon.svg">
  <defs
     id="defs4110" />
  <sodipodi:namedview
     id="base"
     pagecolor="#ffffff"
     bordercolor="#666666"
     borderopacity="1.0"
     inkscape:pageopacity="0.0"
     inkscape:pageshadow="2"
     inkscape:zoom="3.8890873"
     inkscape:cx="59.056725"
     inkscape:cy="24.859043"
     inkscape:current-layer="Layer_1"
     showgrid="true"
     inkscape:document-units="px"
     inkscape:grid-bbox="true"
     inkscape:window-width="894"
     inkscape:window-height="831"
     inkscape:window-x="1885"
     inkscape:window-y="527"
     inkscape:window-maximized="0" />
  <metadata
     id="metadata4113">
    <rdf:RDF>
      <cc:Work
         rdf:about="">
        <dc:format>image/svg+xml</dc:format>
        <dc:type
           rdf:resource="http://purl.org/dc/dcmitype/StillImage" />
        <dc:title></dc:title>
      </cc:Work>
    </rdf:RDF>
  </metadata>
  <g
     id="layer1"
     inkscape:label="Layer 1"
     inkscape:groupmode="layer">
    <g
       style="overflow:visible"
       id="g4212"
       transform="matrix(0.06590212,0,0,0.06590212,9.5548237,6.3448631)">
      <g
         i:rgbTrio="#4F008000FFFF"
         i:dimmedPercent="50"
         i:layer="yes"
         id="Layer_1">
			<path
   id="path4188"
   d="M 539.01116,103.25349 C 492.50015,74.293804 448.62184,62.885444 404.74353,33.925761 377.53898,15.496871 339.80364,-28.381437 308.21125,-66.116782 302.06829,-5.5647168 283.6394,19.007136 262.57781,36.558459 217.82194,71.661106 189.73982,82.1919 151.12691,103.25349 c -32.46995,16.67376 -208.860748,121.9817 -208.860748,348.39377 0,226.41207 190.431858,393.14964 401.925308,393.14964 211.49344,0 394.90477,-153.57408 394.90477,-386.12911 0,-232.55504 -172.00297,-337.86298 -200.08508,-355.4143 z"
   i:knockout="Off"
   inkscape:connector-curvature="0"
   style="fill:#1a1a1a;fill-opacity:1" />

			
			
			
			<path
   id="path4196"
   d="M 538.81575,103.15637 C 493.18231,74.196687 448.42644,62.788327 404.54813,33.828643 377.34358,16.27732 339.60823,-28.478554 308.01585,-66.2139 c -6.14296,60.5520659 -23.69429,86.001485 -45.63344,102.675242 -44.75588,35.102647 -72.83799,45.633441 -111.4509,66.695028 -32.46995,17.55132 -208.860753,121.9817 -208.860753,348.39377 0,72.28805 19.415274,138.49281 52.7276861,195.13093 C 65.822798,767.43535 200.02841,844.69978 343.99606,844.69978 c 211.49345,0 394.90478,-153.57408 394.90478,-386.12911 0,-127.71045 -51.87235,-217.03733 -103.29539,-274.5378 -42.21561,-47.20487 -84.12934,-72.96319 -96.7897,-80.8765 z m 106.66992,102.73024 c 57.61749,72.03531 86.83342,157.05041 86.83342,252.68406 0,55.49494 -10.56941,107.91724 -31.4157,155.8148 -19.77449,45.43569 -48.24976,85.68907 -84.63599,119.6462 -71.92415,67.12094 -168.6179,104.08637 -272.27134,104.08637 -51.28028,0 -101.6011,-9.79481 -149.56535,-29.11414 C 147.31944,790.02858 104.86396,762.85796 68.244881,728.24558 -8.8756339,655.35377 -51.347496,557.08742 -51.347496,451.55014 c 0,-94.00021 30.51122,-177.52579 90.685347,-248.25411 45.971597,-54.03467 95.543559,-83.98191 114.723639,-94.34889 9.31156,-5.07936 18.04627,-9.561964 26.49431,-13.897141 26.4791,-13.590574 51.48973,-26.427612 85.88916,-53.408677 18.34347,-13.940431 37.88394,-36.0211655 46.20561,-92.088283 28.98776,34.47782 62.62546,73.222951 88.32996,89.806611 22.81672,15.059036 46.21965,25.610891 68.85267,35.816401 21.41027,9.653228 43.54951,19.63525 65.45708,33.538239 0.0374,0.0246 0.8214,0.5125 0.8214,0.5125 64.04127,39.98425 98.16104,82.64099 109.37399,96.65982 z"
   i:knockout="Off"
   inkscape:connector-curvature="0"
   style="fill:#004975" />

			<path
   id="path4198"
   d="m 312.40368,-48.662576 c 12.28593,35.980213 10.53079,54.4091021 10.53079,62.307198 0,7.898095 -4.38783,28.959683 -18.42889,39.490477 -6.14296,4.387831 -7.89809,7.898096 -7.89809,8.775662 0,3.510264 7.89809,6.142963 7.89809,14.041058 0,9.653228 -4.38783,28.959681 -50.89883,75.470691 C 207.09574,197.93352 140.40071,239.17913 88.624308,264.62855 36.847904,290.07796 12.276051,288.32283 5.2555216,276.03691 -1.7650078,263.75098 7.8882201,236.54643 40.358168,200.56622 72.828116,164.586 175.50336,112.8096 175.50336,112.8096 l 128.12466,-89.511751 7.02053,-34.22508"
   i:knockout="Off"
   inkscape:connector-curvature="0"
   style="fill:#808080" />

			<path
   id="path4200"
   d="m 312.40368,-49.540143 c -7.8981,57.9193676 -25.44942,75.470691 -49.14371,93.89958 -39.49047,29.83725 -78.10338,48.26614 -86.87905,52.65397 C 153.5642,108.42177 71.072984,154.05521 28.072242,219.87267 c -13.163493,20.18402 0,28.08212 2.632698,29.83725 2.632699,1.75513 32.469949,5.2654 96.53228,-33.34751 64.06233,-38.61292 92.14445,-61.42964 128.12466,-99.16498 19.30646,-20.184023 21.93915,-31.592383 21.93915,-36.85778 0,-6.142963 -4.38783,-8.775661 -11.40836,-10.530794 -3.51026,-0.877566 -4.38783,-2.632698 0,-5.265397 4.38783,-2.632698 22.81672,-11.40836 27.20455,-14.918625 4.38784,-3.510264 25.44942,-17.551323 26.32699,-40.3680433 0.87757,-22.8167207 -0.87757,-38.6129117 -7.02053,-58.7969337 l 0,0 z"
   i:knockout="Off"
   inkscape:connector-curvature="0"
   style="fill:#ffffff" />

			
			<path
   id="path4204"
   d="m 643.24613,209.34188 c 17.55132,53.53153 0.87756,101.79767 -10.5308,131.63492 -11.40836,29.83725 -70.20529,159.71704 -387.88424,301.88276 -58.79694,26.32699 -71.08286,37.73535 -137.77789,38.61292 C 50.888962,682.35004 21.929279,663.04359 3.5003892,646.36983 l -8.7019461,0.31124 C 65.822798,767.43535 200.02841,844.69978 343.99606,844.69978 c 211.49345,0 394.90478,-153.57408 394.90478,-386.12911 0,-127.71045 -51.87235,-217.03733 -103.29539,-274.5378 1.78321,6.67652 4.2521,14.97479 7.64068,25.30901 z"
   i:knockout="Off"
   inkscape:connector-curvature="0"
   style="fill:none" />

		<g
   transform="scale(0.99374398,1.0062954)"
   style="font-size:618.86999511999999868px;font-style:normal;font-variant:normal;font-weight:normal;font-stretch:normal;line-height:125%;letter-spacing:0px;word-spacing:0px;fill:#e6e6e6;fill-opacity:1;stroke:none;font-family:DejaVu Sans;-inkscape-font-specification:DejaVu Sans"
   id="text4224">
  <path
     d="m 483.48649,468.30722 -100.21584,0 -28.92828,115.02438 100.90461,0 28.23951,-115.02438 m -51.65764,-195.95468 -35.81597,142.9195 100.56022,0 36.16036,-142.9195 55.10148,0 -35.47157,142.9195 107.4479,0 0,53.03518 -120.8789,0 -28.23951,115.02438 109.51421,0 0,52.6908 -122.9452,0 -35.81597,142.57511 -55.10149,0 35.47159,-142.57511 -100.90462,0 -35.47158,142.57511 -55.44588,0 35.81597,-142.57511 -108.48106,0 0,-52.6908 121.22328,0 28.92829,-115.02438 -110.89175,0 0,-53.03518 124.32273,0 35.12721,-142.9195 55.79026,0"
     style="font-family:DejaVu Sans;-inkscape-font-specification:DejaVu Sans;fill:#e6e6e6"
     id="path4248"
     inkscape:connector-curvature="0" />
</g>
</g>
    </g>
  </g>
</svg>
